<svg version="1.1" id="Layer_1" xmlns="http://www.w3.org/2000/svg" xmlns:xlink="http://www.w3.org/1999/xlink" x="0px" y="0px" viewBox="0 0 10 10" enable-background="new 0 0 10 10" xml:space="preserve">
<path fill-rule="evenodd" clip-rule="evenodd" fill="#FFFFFF" d="M8.1,7.4C7.4,7.8,6.7,8.1,5.9,8.3C5,8.5,4.1,8.6,3.3,8.6  C2.5,8.5,1.8,8.3,1.3,8S0.3,7,0.1,6.3c-0.2-0.7-0.1-1.4,0.2-2c0.3-0.6,0.8-1.1,1.5-1.6c0.7-0.4,1.5-0.8,2.4-1C5,1.5,5.9,1.4,6.7,1.4  c0.5,0,1,0.1,1.5,0.3C8.4,1.8,8.5,1.9,8.7,2c0.6,0.4,1,0.9,1.1,1.7c0.2,0.7,0.1,1.4-0.2,2c0,0.1-0.1,0.2-0.1,0.2  c0-0.2-0.1-0.3-0.2-0.4C9.3,5.5,9.3,5.4,9.2,5.4C9.1,5.3,8.9,5.2,8.7,5.1C8.5,5,8.2,5,7.8,5C7.5,5,7.2,5,6.9,5.1  C6.7,5.2,6.4,5.4,6.3,5.5C6.1,5.7,6.1,5.9,6.1,6.2c0,0.3,0.1,0.5,0.2,0.7C6.4,7,6.7,7.2,6.9,7.3c0.3,0.1,0.6,0.1,0.9,0.1  C7.9,7.4,8,7.4,8.1,7.4z M5.2,6.9C5.1,7,5,7.1,4.9,7.1C4.7,7.2,4.5,7.3,4.3,7.3C4.1,7.4,3.8,7.4,3.6,7.4c-0.2,0-0.4,0-0.7-0.1  c-0.2,0-0.4-0.1-0.6-0.2C2.1,7,2,6.9,1.9,6.8C1.8,6.6,1.7,6.4,1.7,6.2c0-0.2,0.1-0.4,0.2-0.6C2,5.5,2.1,5.4,2.3,5.3  c0.2-0.1,0.4-0.2,0.6-0.2C3.1,5,3.3,5,3.6,5c0.3,0,0.5,0,0.7,0.1c0.2,0,0.4,0.1,0.6,0.2C5,5.3,5.1,5.4,5.2,5.5L4.6,5.9  C4.5,5.8,4.4,5.7,4.2,5.6C4,5.6,3.8,5.6,3.6,5.6c-0.1,0-0.2,0-0.4,0C3.1,5.6,3,5.6,2.9,5.7c-0.1,0-0.2,0.1-0.3,0.2  C2.5,6,2.5,6.1,2.5,6.2c0,0.1,0,0.2,0.1,0.3c0.1,0.1,0.1,0.1,0.3,0.2c0.1,0,0.2,0.1,0.3,0.1c0.1,0,0.2,0,0.4,0c0.2,0,0.5,0,0.6-0.1  c0.2-0.1,0.3-0.1,0.4-0.2L5.2,6.9z M7.8,6.8c0.3,0,0.6-0.1,0.7-0.2c0.2-0.1,0.3-0.3,0.3-0.5c0-0.2-0.1-0.3-0.3-0.5  C8.4,5.6,8.1,5.6,7.8,5.6c-0.3,0-0.6,0.1-0.7,0.2C6.9,5.9,6.8,6,6.8,6.2c0,0.2,0.1,0.3,0.3,0.5C7.3,6.8,7.5,6.8,7.8,6.8z"/>
</svg>